<svg width="46" height="50" viewBox="0 0 46 50" fill="none" xmlns="http://www.w3.org/2000/svg">
<path d="M44.9003 44.9811L34.666 33.6464C37.13 30.0135 38.4601 25.5916 38.4556 21.0479C38.4556 9.44215 29.9301 -6.10352e-05 19.4511 -6.10352e-05C8.97208 -6.10352e-05 0.446594 9.44215 0.446594 21.0479C0.446594 32.6537 8.97208 42.0959 19.4511 42.0959C23.5536 42.1009 27.5462 40.6278 30.8264 37.8989L41.0607 49.2336C41.5787 49.7465 42.2544 50.0203 42.949 49.9988C43.6436 49.9772 44.3044 49.662 44.7958 49.1178C45.2871 48.5737 45.5717 47.8418 45.5912 47.0725C45.6106 46.3032 45.3634 45.5549 44.9003 44.9811ZM5.87645 21.0479C5.87645 18.0744 6.67259 15.1677 8.16419 12.6953C9.65579 10.223 11.7759 8.29598 14.2563 7.15807C16.7367 6.02016 19.4662 5.72243 22.0994 6.30253C24.7326 6.88263 27.1514 8.31451 29.0498 10.4171C30.9483 12.5197 32.2411 15.1985 32.7649 18.1149C33.2887 21.0313 33.0199 24.0542 31.9924 26.8013C30.965 29.5485 29.2251 31.8965 26.9928 33.5485C24.7604 35.2005 22.1359 36.0822 19.4511 36.0822C15.8522 36.0774 12.4019 34.4919 9.85714 31.6735C7.31234 28.8551 5.88077 25.0338 5.87645 21.0479Z" fill="#7D5FFF"/>
</svg>
